<?xml version="1.0" encoding="UTF-8"?>
<svg version="1.1" xmlns="http://www.w3.org/2000/svg" width="441" height="441">
<path d="M0 0 C145.53 0 291.06 0 441 0 C441 145.53 441 291.06 441 441 C295.47 441 149.94 441 0 441 C0 295.47 0 149.94 0 0 Z " fill="#E8E7E3" transform="translate(0,0)"/>
<path d="M0 0 C145.53 0 291.06 0 441 0 C441 145.53 441 291.06 441 441 C295.47 441 149.94 441 0 441 C0 295.47 0 149.94 0 0 Z M39 34 C39 156.76 39 279.52 39 406 C159.45 406 279.9 406 404 406 C404 283.24 404 160.48 404 34 C283.55 34 163.1 34 39 34 Z " fill="#000000" transform="translate(0,0)"/>
<path d="M0 0 C13.86 0 27.72 0 42 0 C42.00410889 3.97546875 42.00821777 7.9509375 42.01245117 12.046875 C42.02969888 25.22645793 42.07403528 38.40583527 42.13209057 51.58529663 C42.16661335 59.57089231 42.19207928 67.55631764 42.19555664 75.54199219 C42.19861436 82.50952473 42.21934513 89.47675292 42.26052457 96.44416809 C42.28169405 100.12692379 42.29453924 103.80924861 42.28615379 107.49206543 C41.44610675 134.04381122 41.44610675 134.04381122 53 157 C64.15529599 165.56319402 77.96434168 166.18299553 91.55078125 164.7265625 C99.74352741 163.18405612 107.61973463 159.66154764 112.7578125 152.94140625 C119.54046316 142.34084846 120.29668433 131.04246784 120.31884766 118.74755859 C120.32889328 117.45862701 120.3389389 116.16969543 120.34928894 114.84170532 C120.37637777 111.33828934 120.39167495 107.83491307 120.40471697 104.33142042 C120.4204409 100.65853333 120.44720113 96.98572627 120.4727478 93.31289673 C120.51937272 86.3717305 120.55619517 79.43054894 120.58942068 72.48930705 C120.62775778 64.58107434 120.67713724 56.67292234 120.72740483 48.76475787 C120.83048221 32.50989125 120.91836332 16.25499059 121 0 C134.86 0 148.72 0 163 0 C163.04529232 16.82122101 163.08207341 33.6423893 163.10362434 50.46365452 C163.11390048 58.27551533 163.12789002 66.08733532 163.15087891 73.89916992 C163.17092574 80.7145654 163.18374299 87.5299313 163.18817699 94.34535545 C163.19076542 97.94806869 163.19677121 101.55069735 163.21146011 105.15338326 C163.31807067 132.4006449 163.14396703 159.26172191 142.97265625 180.09375 C124.46496882 197.49700039 100.39152567 201.69073766 75.92578125 201.2265625 C69.15525895 201.01535037 62.64133368 200.40146423 56 199 C55.1028125 198.82855469 54.205625 198.65710938 53.28125 198.48046875 C36.29539507 194.60869299 20.72022075 184.43368986 11 170 C2.36101357 155.42171041 -0.16079894 141.17367179 -0.11352539 124.53735352 C-0.11324298 123.1767324 -0.1134023 121.81611114 -0.1139679 120.45549011 C-0.11425378 116.77832247 -0.10839079 113.10118771 -0.10139394 109.42402768 C-0.09512566 105.57499946 -0.09455386 101.72597041 -0.09336853 97.87693787 C-0.09026544 90.59564087 -0.08206587 83.31435896 -0.07201904 76.0330686 C-0.06082612 67.74044219 -0.05533945 59.44781504 -0.05032361 51.15518296 C-0.03988237 34.10344509 -0.02154963 17.051728 0 0 Z " fill="#010101" transform="translate(224,196)"/>
<path d="M0 0 C46.86 0 93.72 0 142 0 C142 30.31624277 142 30.31624277 136.56494141 37.10498047 C136.12327637 37.54213379 135.68161133 37.97928711 135.2265625 38.4296875 C131.05819876 42.86984424 127.79372173 47.91355565 124.375 52.9375 C122.98891002 54.93753744 121.60086442 56.93622089 120.2109375 58.93359375 C119.16437988 60.44155518 119.16437988 60.44155518 118.09667969 61.97998047 C114.73471744 66.82249013 111.36716006 71.66110385 108 76.5 C106.66663803 78.41664675 105.33330474 80.33331344 104 82.25 C80 116.75 80 116.75 77.99707031 119.62915039 C76.67342619 121.53192927 75.34985758 123.43476068 74.02636719 125.33764648 C70.54542944 130.34224581 67.06290409 135.34573079 63.578125 140.34765625 C62.85367188 141.38792969 62.12921875 142.42820312 61.3828125 143.5 C59.99788117 145.48861934 58.61249102 147.47691925 57.2265625 149.46484375 C56.60007813 150.36460937 55.97359375 151.264375 55.328125 152.19140625 C54.7805957 152.97717041 54.23306641 153.76293457 53.66894531 154.57250977 C51.7508794 157.3623473 49.87798339 160.18302491 48 163 C80.01 163 112.02 163 145 163 C145 174.22 145 185.44 145 197 C96.49 197 47.98 197 -2 197 C-2 164.94717456 -2 164.94717456 9.4296875 151.5859375 C14.01899122 146.05114772 18.08181303 140.25266848 22.125 134.3125 C23.45858489 132.39029276 24.7944976 130.46969828 26.1328125 128.55078125 C26.78024414 127.62088379 27.42767578 126.69098633 28.09472656 125.73291016 C31.62678739 120.66654818 35.17172692 115.60921727 38.71582031 110.55126953 C44.4714463 102.33382159 50.20007952 94.0976907 55.92578125 85.859375 C58.62799788 81.97149849 61.33386036 78.08620221 64.04296875 74.203125 C64.71666504 73.23673096 65.39036133 72.27033691 66.08447266 71.2746582 C67.32415319 69.49653829 68.56459375 67.71894775 69.80615234 65.94213867 C76.9541689 55.68379002 83.95532643 45.3321879 91 35 C60.97 34.67 30.94 34.34 0 34 C0 22.78 0 11.56 0 0 Z " fill="#000000" transform="translate(49,197)"/>
<path d="M0 0 C7.26 0 14.52 0 22 0 C22.56283691 1.50264404 23.12567383 3.00528809 23.70556641 4.5534668 C26.34462735 11.59842573 28.98452117 18.64307239 31.625 25.6875 C31.86243801 26.32095337 32.09987602 26.95440674 32.34450912 27.60705566 C40.52130649 49.42052737 48.73304177 71.22051939 57 93 C58.72370973 90.4144354 59.7430909 88.33818032 60.84082031 85.47314453 C61.1963649 84.55048294 61.55190948 83.62782135 61.91822815 82.67720032 C62.30099411 81.67255234 62.68376007 80.66790436 63.078125 79.6328125 C63.48179794 78.58171799 63.88547089 77.53062347 64.30137634 76.44767761 C65.62116629 73.0081462 66.935606 69.56659662 68.25 66.125 C69.1537844 63.76706836 70.05783843 61.40924004 70.9621582 59.05151367 C75.13496155 48.16268268 79.28634123 37.26590056 83.40234375 26.35546875 C83.89557632 25.04848022 83.89557632 25.04848022 84.39877319 23.71508789 C85.92017765 19.68118602 87.4375245 15.6458266 88.94824219 11.60791016 C89.47979966 10.19302707 90.01137405 8.77815035 90.54296875 7.36328125 C90.99696045 6.14938721 91.45095215 4.93549316 91.91870117 3.68481445 C93 1 93 1 94 0 C101.26 0 108.52 0 116 0 C116 38.28 116 76.56 116 116 C111.05 116 106.1 116 101 116 C101 83.33 101 50.66 101 17 C97.7 25.724375 94.4 34.44875 91 43.4375 C81.81560224 67.6841182 72.49998994 91.87508006 63 116 C59.04 116 55.08 116 51 116 C43.64081933 98.05604683 36.89636046 79.88209203 30.109375 61.71655273 C28.56478057 57.58386271 27.01763184 53.4521292 25.47070312 49.3203125 C22.75578587 42.06790639 20.04303645 34.81469287 17.33195496 27.56085205 C15.89018013 23.70640726 14.44496828 19.85324876 13 16 C13 49 13 82 13 116 C8.71 116 4.42 116 0 116 C0 77.72 0 39.44 0 0 Z " fill="#040404" transform="translate(64,58)"/>
<path d="M0 0 C4.62 0 9.24 0 14 0 C14.87398437 2.26798462 14.87398437 2.26798462 15.765625 4.58178711 C26.3654818 32.08447391 36.97511192 59.58285455 47.71182251 87.03248596 C48.84813042 89.93771142 49.98370081 92.843225 51.11932373 95.74871826 C51.7396487 97.33446131 52.36068619 98.91992572 52.98223877 100.50518799 C53.97012905 103.02500935 54.95592284 105.54564277 55.94140625 108.06640625 C56.40147316 109.23743141 56.40147316 109.23743141 56.87083435 110.43211365 C59 115.88642813 59 115.88642813 59 117 C53.72 117 48.44 117 43 117 C41.14551064 112.19564981 39.29305769 107.39061728 37.44580078 102.58349609 C36.8164667 100.94761736 36.18593709 99.31219804 35.55419922 97.67724609 C34.6475838 95.33029345 33.74524785 92.98173482 32.84375 90.6328125 C32.4172113 89.53273361 32.4172113 89.53273361 31.98205566 88.41043091 C30 83.22774341 30 83.22774341 30 81 C14.49 81 -1.02 81 -17 81 C-17.99 84.3 -18.98 87.6 -20 91 C-20.79759093 93.23201684 -21.62138314 95.45498523 -22.48046875 97.6640625 C-22.92197266 98.80488281 -23.36347656 99.94570312 -23.81835938 101.12109375 C-24.27017578 102.27738281 -24.72199219 103.43367188 -25.1875 104.625 C-25.88262695 106.41744141 -25.88262695 106.41744141 -26.59179688 108.24609375 C-27.72447927 111.16537826 -28.86176621 114.08287551 -30 117 C-34.95 117 -39.9 117 -45 117 C-42.35752019 107.37243568 -38.66315736 98.21000738 -35 88.9375 C-33.56213708 85.28060131 -32.12695771 81.62265033 -30.69140625 77.96484375 C-30.31568985 77.00871185 -29.93997345 76.05257996 -29.5528717 75.06747437 C-26.66826026 67.72138965 -23.81091378 60.36500089 -20.96484375 53.00390625 C-20.54522369 51.91899399 -20.12560364 50.83408173 -19.69326782 49.71629333 C-18.03964139 45.43998883 -16.38640003 41.16353911 -14.73608398 36.88595581 C-9.96761993 24.5286768 -5.11052904 12.22016171 0 0 Z " fill="#040404" transform="translate(241,57)"/>
<path d="M0 0 C28.38 0 56.76 0 86 0 C86 3.96 86 7.92 86 12 C74.12 12 62.24 12 50 12 C50 46.32 50 80.64 50 116 C45.38 116 40.76 116 36 116 C36 81.68 36 47.36 36 12 C24.12 12 12.24 12 0 12 C0 8.04 0 4.08 0 0 Z " fill="#000000" transform="translate(302,58)"/>
<path d="M0 0 C2.63573474 2.63573474 3.20367597 5.09563014 4.390625 8.6328125 C4.61604477 9.29786804 4.84146454 9.96292358 5.07371521 10.64813232 C5.80418934 12.80542041 6.52699195 14.96519965 7.25 17.125 C8.23746922 20.04803838 9.22944997 22.96953157 10.22265625 25.890625 C10.46430008 26.60253998 10.70594391 27.31445496 10.95491028 28.04794312 C13.17624496 34.56872872 15.5706937 41.01220075 18.07421875 47.4296875 C19 50 19 50 19 52 C7.12 52 -4.76 52 -17 52 C-15.87516041 45.25096245 -15.87516041 45.25096245 -14.74072266 42.17285156 C-14.3649559 41.14082611 -14.3649559 41.14082611 -13.9815979 40.08795166 C-13.71181122 39.36283386 -13.44202454 38.63771606 -13.1640625 37.890625 C-12.88404388 37.1237738 -12.60402527 36.35692261 -12.31552124 35.5668335 C-11.42360917 33.12604919 -10.52484008 30.68787147 -9.625 28.25 C-8.44687152 25.04820241 -7.27213293 21.84519365 -6.1015625 18.640625 C-5.82322571 17.87882935 -5.54488892 17.11703369 -5.25811768 16.33215332 C-3.30485686 10.94412238 -1.51433554 5.52985735 0 0 Z " fill="#E5E4E0" transform="translate(247,73)"/>
<path d="M0 0 C3.0766616 2.12999649 3.85763576 3.25654231 4.5625 6.9375 C3.79477021 11.11736219 2.42123173 12.52506641 -1 15 C-4.95779649 15.62491523 -7.00863886 15.61006839 -10.4375 13.5 C-12.33148168 10.46962931 -12.64334247 8.44169066 -12.4453125 4.91015625 C-12 3 -12 3 -9.9375 0.4375 C-6.07364271 -1.45332378 -4.09918272 -1.19248952 0 0 Z " fill="#2C68EA" transform="translate(391,383)"/>
<path d="M0 0 C0.33 0 0.66 0 1 0 C1 3.63 1 7.26 1 11 C0.34 10.01 -0.32 9.02 -1 8 C-1.99 8.495 -1.99 8.495 -3 9 C-2.01 6.03 -1.02 3.06 0 0 Z " fill="#CBCAC7" transform="translate(165,73)"/>
</svg>
