<?xml version="1.0" encoding="UTF-8"?>
<svg version="1.1" xmlns="http://www.w3.org/2000/svg" width="1472" height="832">
<path d="M0 0 C485.76 0 971.52 0 1472 0 C1472 274.56 1472 549.12 1472 832 C986.24 832 500.48 832 0 832 C0 557.44 0 282.88 0 0 Z " fill="#FFFFFF" transform="translate(0,0)"/>
<path d="M0 0 C145.86 0 291.72 0 442 0 C442 145.86 442 291.72 442 442 C296.14 442 150.28 442 0 442 C0 296.14 0 150.28 0 0 Z " fill="#E9E8E4" transform="translate(515,195)"/>
<path d="M0 0 C145.86 0 291.72 0 442 0 C442 145.86 442 291.72 442 442 C296.14 442 150.28 442 0 442 C0 296.14 0 150.28 0 0 Z M40 35 C40 157.76 40 280.52 40 407 C160.12 407 280.24 407 404 407 C404 284.24 404 161.48 404 35 C283.88 35 163.76 35 40 35 Z " fill="#040404" transform="translate(515,195)"/>
<path d="M0 0 C13.53 0 27.06 0 41 0 C41.01458252 3.87000732 41.02916504 7.74001465 41.04418945 11.72729492 C41.0946277 24.54365388 41.16109116 37.35988828 41.23571491 50.17612743 C41.28055115 57.9431694 41.31999336 65.71016675 41.34643555 73.47729492 C41.36951478 80.2524704 41.40302211 87.02750326 41.44870156 93.8025654 C41.47250103 97.3850777 41.4913162 100.96744993 41.49761391 104.55003929 C41.5048659 108.56375351 41.53541471 112.57698454 41.56762695 116.59057617 C41.56619186 117.75943359 41.56475677 118.92829102 41.5632782 120.13256836 C41.7095765 133.10429248 44.03789765 147.49597191 53.09375 157.4296875 C63.1914442 165.74787002 76.5734174 166.02665972 89 165 C98.54454362 163.13552943 106.36701569 159.73200058 112.61328125 152.125 C117.43155296 144.74150757 119.10073371 135.91767606 119.15821838 127.22927856 C119.1680072 126.10194809 119.17779602 124.97461761 119.18788147 123.81312561 C119.19363693 122.59104904 119.1993924 121.36897247 119.20532227 120.10986328 C119.21522186 118.81176224 119.22512146 117.51366119 119.23532104 116.17622375 C119.26226371 112.62919094 119.28333057 109.08214496 119.30332303 105.53506708 C119.32524852 101.82347394 119.35260499 98.11192087 119.37937927 94.40036011 C119.42921766 87.37759558 119.47418919 80.3548087 119.51740164 73.33200061 C119.56684986 65.33440558 119.62173977 57.33685076 119.67708123 49.33929467 C119.7907653 32.89289892 119.89691541 16.44646613 120 0 C133.86 0 147.72 0 162 0 C162.06785703 18.04649043 162.12306306 36.09287109 162.15543652 54.13945389 C162.17087108 62.51977371 162.19189496 70.90000832 162.22631836 79.28027344 C162.25632561 86.58895769 162.27559976 93.89758019 162.28226548 101.20632434 C162.28615866 105.07223074 162.29523604 108.93796059 162.31719017 112.80381012 C162.33773484 116.45144029 162.34379801 120.09882319 162.33932304 123.74650574 C162.34052642 125.70516129 162.35657359 127.66379065 162.3732605 129.62237549 C162.30815633 148.47921258 155.36387263 166.20672908 142.5625 180.125 C122.78887931 198.85790381 96.13718755 201.73331716 70.16210938 201.13183594 C49.29284362 200.26174611 30.14228698 192.22423154 15.58203125 177.1015625 C2.70710132 162.3367785 -0.33515743 144.81926219 -0.22705078 125.78613281 C-0.22648511 124.40507007 -0.22680627 123.02400673 -0.22793579 121.64294434 C-0.22850421 117.9329753 -0.21683368 114.22313842 -0.20278788 110.51319981 C-0.19019437 106.62149812 -0.18910328 102.72979265 -0.18673706 98.83807373 C-0.18054742 91.48608968 -0.16417104 84.13416586 -0.14403808 76.7822082 C-0.12160028 68.40483058 -0.11066593 60.02744993 -0.10064721 51.65004969 C-0.07980227 34.43332574 -0.04315791 17.21668467 0 0 Z " fill="#010101" transform="translate(740,392)"/>
<path d="M0 0 C47.19 0 94.38 0 143 0 C143 31.8664685 143 31.8664685 134.671875 40.76171875 C130.39775529 45.570681 126.86537879 50.81292253 123.25 56.125 C121.88220663 58.09774118 120.51239666 60.0690856 119.140625 62.0390625 C118.11291992 63.51874512 118.11291992 63.51874512 117.06445312 65.02832031 C113.71207243 69.85390898 110.35588175 74.67684577 107 79.5 C105.66664758 81.41665339 104.33331427 83.33332007 103 85.25 C79 119.75 79 119.75 76.99658203 122.62988281 C75.67460371 124.53024685 74.35266308 126.43063711 73.03076172 128.33105469 C69.52401888 133.37237662 66.01646025 138.41312862 62.5078125 143.453125 C61.77433594 144.50693359 61.04085937 145.56074219 60.28515625 146.64648438 C58.87393748 148.67399489 57.46248914 150.70134564 56.05078125 152.72851562 C55.41785156 153.63794922 54.78492188 154.54738281 54.1328125 155.484375 C53.57480957 156.28584961 53.01680664 157.08732422 52.44189453 157.91308594 C51.27812329 159.59746057 50.13564369 161.29653447 49 163 C80.68 163.33 112.36 163.66 145 164 C145 175.22 145 186.44 145 198 C96.49 198 47.98 198 -2 198 C-2 166.52908303 -2 166.52908303 9.16992188 154.12744141 C12.26623489 150.52801884 14.81781392 146.57712653 17.4375 142.625 C18.51848421 141.03095652 19.60183509 139.43851551 20.6875 137.84765625 C21.23019531 137.05117676 21.77289062 136.25469727 22.33203125 135.43408203 C26.9117557 128.75084831 31.58665505 122.13310322 36.24267578 115.50292969 C39.12334042 111.40004363 41.99956062 107.2940492 44.875 103.1875 C45.44726318 102.37031494 46.01952637 101.55312988 46.60913086 100.71118164 C51.08498872 94.31594466 55.5444517 87.90939825 60 81.5 C65.11703364 74.1402549 70.23841355 66.78361588 75.375 59.4375 C75.89707031 58.68984375 76.41914062 57.9421875 76.95703125 57.171875 C81.92164245 50.07780463 86.96636643 43.04708699 92 36 C61.64 35.67 31.28 35.34 0 35 C0 23.45 0 11.9 0 0 Z " fill="#010101" transform="translate(564,392)"/>
<path d="M0 0 C7.26 0 14.52 0 22 0 C26.90905884 11.43820468 31.2149392 23.08964735 35.5625 34.75 C36.76409613 37.96744102 37.96618952 41.18469595 39.16833496 44.40193176 C39.96850747 46.54357891 40.76839475 48.68533265 41.56799316 50.82719421 C43.9774871 57.27806036 46.40395737 63.72217656 48.84765625 70.16015625 C49.68093306 72.36056157 50.51393032 74.56107255 51.34689331 76.76159668 C51.86272488 78.12120546 52.38022368 79.48018294 52.89944458 80.83850098 C53.60656957 82.68885998 54.30738272 84.5416275 55.0078125 86.39453125 C55.39598145 87.41393799 55.78415039 88.43334473 56.18408203 89.48364258 C57 92 57 92 57 95 C57.66 95 58.32 95 59 95 C59.08813965 94.21939209 59.1762793 93.43878418 59.26708984 92.63452148 C60.23890057 87.81528556 61.95765954 83.42525262 63.7265625 78.84765625 C64.10672012 77.85071243 64.48687775 76.85376862 64.8785553 75.82661438 C66.12200088 72.56982737 67.37340171 69.31616158 68.625 66.0625 C69.48329237 63.81935051 70.34111755 61.5760222 71.19848633 59.33251953 C73.37249068 53.64825025 75.55335118 47.96664241 77.73699951 42.28607178 C78.94825469 39.13463083 80.15823431 35.98270379 81.36767578 32.83056641 C85.5684017 21.88315656 89.77930911 10.93972796 94 0 C101.26 0 108.52 0 116 0 C116 38.28 116 76.56 116 116 C111.38 116 106.76 116 102 116 C102 83 102 50 102 16 C87.38619202 54.2609959 87.38619202 54.2609959 72.7878418 92.52789307 C72.09746699 94.33864501 71.40687549 96.14931434 70.71606445 97.9598999 C69.76322916 100.45741129 68.81118703 102.9552235 67.859375 105.453125 C67.58119934 106.18179779 67.30302368 106.91047058 67.01641846 107.66122437 C65.96293744 110.42815165 64.93639379 113.19081862 64 116 C59.71 116 55.42 116 51 116 C47.65165892 107.07893238 44.30396855 98.1576209 40.95703316 89.23602581 C39.40166786 85.09009944 37.84610636 80.94424694 36.29003906 76.79858398 C34.77874385 72.77217763 33.26803878 68.74555025 31.75768661 64.71879005 C31.19118714 63.2087246 30.62450056 61.69872933 30.05759048 60.18881798 C24.65897866 45.8093704 19.33467448 31.4036211 14 17 C14 49.67 14 82.34 14 116 C9.38 116 4.76 116 0 116 C0 77.72 0 39.44 0 0 Z " fill="#040404" transform="translate(579,254)"/>
<path d="M0 0 C4.62 0 9.24 0 14 0 C23.68034889 24.29285458 33.30195588 48.60221641 42.55517578 73.0614624 C46.99174632 84.78869773 51.50685539 96.47255785 56.26000977 108.07592773 C56.81192993 109.43053101 56.81192993 109.43053101 57.375 110.8125 C57.69210937 111.58207031 58.00921875 112.35164063 58.3359375 113.14453125 C59 115 59 115 59 117 C54.05 117 49.1 117 44 117 C40.36294778 109.21554542 37.15466 101.37346306 34.1875 93.3125 C32.805625 89.579375 31.42375 85.84625 30 82 C14.49 81.67 -1.02 81.34 -17 81 C-17.33 82.65 -17.66 84.3 -18 86 C-18.87059391 88.44560447 -19.77067213 90.85638387 -20.72265625 93.26953125 C-20.98759384 93.95053391 -21.25253143 94.63153656 -21.52549744 95.33317566 C-22.36733649 97.49446731 -23.21482507 99.65349145 -24.0625 101.8125 C-24.63644293 103.28305674 -25.21001468 104.7537584 -25.78320312 106.22460938 C-27.18382438 109.81838867 -28.59207287 113.40904257 -30 117 C-34.95 117 -39.9 117 -45 117 C-42.71279861 109.93589515 -40.14093728 103.0158926 -37.45703125 96.09375 C-37.01589493 94.95128311 -36.57475861 93.80881622 -36.12025452 92.63172913 C-34.93193147 89.55574173 -33.74172881 86.4804908 -32.55049896 83.4056282 C-31.56123188 80.8511866 -30.5734684 78.29616467 -29.58567047 75.74115467 C-23.37285795 59.6722519 -17.13782133 43.61198172 -10.875 27.5625 C-10.54811188 26.72477051 -10.22122375 25.88704102 -9.88442993 25.02392578 C-6.6228271 16.66910972 -3.34822439 8.32058749 0 0 Z " fill="#040404" transform="translate(756,253)"/>
<path d="M0 0 C28.71 0 57.42 0 87 0 C87 4.29 87 8.58 87 13 C75.12 13 63.24 13 51 13 C51 46.99 51 80.98 51 116 C46.05 116 41.1 116 36 116 C36 82.01 36 48.02 36 13 C24.12 13 12.24 13 0 13 C0 8.71 0 4.42 0 0 Z " fill="#060606" transform="translate(817,254)"/>
<path d="M0 0 C2 1 2 1 2.81860352 2.93579102 C3.08600342 3.78326904 3.35340332 4.63074707 3.62890625 5.50390625 C4.09200195 6.94020386 4.09200195 6.94020386 4.56445312 8.40551758 C4.89380859 9.44732178 5.22316406 10.48912598 5.5625 11.5625 C8.8175866 21.63540518 12.37540259 31.54978912 16.20532227 41.41821289 C16.57069092 42.36946045 16.93605957 43.32070801 17.3125 44.30078125 C17.80169922 45.55628784 17.80169922 45.55628784 18.30078125 46.8371582 C19 49 19 49 19 52 C7.12 52 -4.76 52 -17 52 C-16.17611673 47.05670035 -14.99550779 42.98132356 -13.1640625 38.3984375 C-12.58849329 36.92319596 -12.01297409 35.4479349 -11.4375 33.97265625 C-10.53571097 31.68158508 -9.63152308 29.39148477 -8.72558594 27.10205078 C-5.20096326 18.17055633 -1.98209313 9.43037388 0 0 Z " fill="#E5E4E0" transform="translate(762,269)"/>
<path d="M0 0 C3.8425303 0.72047443 5.45767292 1.57152696 8 4.5625 C8.71730941 7.3854596 8.71730941 9.7395404 8 12.5625 C5.45767292 15.55347304 3.8425303 16.40452557 0 17.125 C-4.10389613 16.35551948 -5.53959272 14.89128632 -8 11.5625 C-8.625 8.5625 -8.625 8.5625 -8 5.5625 C-5.53959272 2.23371368 -4.10389613 0.76948052 0 0 Z " fill="#2C68EA" transform="translate(902,577.4375)"/>
</svg>
