<?xml version="1.0" standalone="no"?>
<!DOCTYPE svg PUBLIC "-//W3C//DTD SVG 20010904//EN"
 "http://www.w3.org/TR/2001/REC-SVG-20010904/DTD/svg10.dtd">
<svg version="1.0" xmlns="http://www.w3.org/2000/svg"
 width="1472.000000pt" height="832.000000pt" viewBox="0 0 1472.000000 832.000000"
 preserveAspectRatio="xMidYMid meet">

<g transform="translate(0.000000,832.000000) scale(0.100000,-0.100000)"
fill="#000000" stroke="none">
<path d="M5155 6358 c-3 -7 -4 -1001 -3 -2208 l3 -2195 2205 0 2205 0 0 2205
0 2205 -2203 3 c-1757 2 -2204 0 -2207 -10z m4035 -2198 l0 -1860 -1820 0
-1820 0 0 1860 0 1860 1820 0 1820 0 0 -1860z"/>
<path d="M7338 5207 l-227 -582 71 -3 c45 -2 74 1 78 8 4 6 36 88 71 181 l64
169 231 0 232 0 47 -122 c26 -68 58 -148 69 -178 l22 -55 77 -3 77 -3 -18 48
c-10 26 -112 290 -227 586 l-209 537 -66 0 -65 0 -227 -583z m318 341 c15 -46
56 -161 90 -256 35 -95 64 -175 64 -178 0 -2 -81 -4 -180 -4 -99 0 -180 2
-180 5 0 3 31 87 69 188 37 100 77 215 87 255 10 40 19 72 20 72 1 0 15 -37
30 -82z"/>
<path d="M5790 5200 l0 -580 70 0 70 0 -1 393 c0 215 -4 445 -7 509 -4 64 -4
114 -1 110 3 -4 91 -233 194 -509 l189 -503 60 0 61 0 189 498 c104 273 192
502 195 509 3 6 5 -218 3 -498 l-3 -509 70 0 71 0 0 580 0 580 -107 0 -108 0
-174 -458 c-96 -251 -179 -466 -184 -476 -7 -15 -41 66 -163 390 -85 225 -166
439 -180 477 l-26 67 -109 0 -109 0 0 -580z"/>
<path d="M8170 5715 l0 -65 180 0 180 0 0 -515 0 -515 75 0 75 0 0 515 0 515
180 0 180 0 0 65 0 65 -435 0 -435 0 0 -65z"/>
<path d="M5647 4393 c-4 -3 -7 -82 -7 -175 l0 -168 464 0 465 0 -475 -680
-474 -679 0 -136 0 -135 735 0 735 0 0 170 0 170 -484 2 -485 3 474 680 474
680 1 138 0 137 -708 0 c-390 0 -712 -3 -715 -7z"/>
<path d="M7394 4386 c-3 -8 -4 -324 -2 -703 5 -678 5 -689 27 -773 35 -130 82
-212 176 -306 64 -65 97 -89 165 -122 140 -68 234 -86 440 -86 209 -1 299 18
450 91 126 61 239 170 294 286 74 156 70 112 74 910 l3 717 -210 0 -210 0 -3
-682 c-3 -679 -3 -683 -26 -750 -28 -83 -91 -157 -161 -187 -66 -28 -190 -44
-271 -36 -133 14 -223 68 -270 161 -53 107 -53 109 -57 827 l-4 667 -205 0
c-169 0 -206 -3 -210 -14z"/>
<path d="M8977 2520 c-38 -30 -38 -90 -1 -119 35 -28 69 -26 99 4 69 68 -22
174 -98 115z"/>
</g>
</svg>
